<?xml version="1.0" standalone="no"?>
<!DOCTYPE svg PUBLIC "-//W3C//DTD SVG 20010904//EN"
 "http://www.w3.org/TR/2001/REC-SVG-20010904/DTD/svg10.dtd">
<svg version="1.0" xmlns="http://www.w3.org/2000/svg"
 width="512.000000pt" height="512.000000pt" viewBox="0 0 512.000000 512.000000"
 preserveAspectRatio="xMidYMid meet">

<g transform="translate(0.000000,512.000000) scale(0.100000,-0.100000)"
fill="#000000" stroke="none">
<path d="M1340 5113 c-332 -37 -602 -168 -859 -418 -259 -251 -394 -489 -458
-801 -17 -83 -18 -173 -18 -1334 0 -1161 1 -1251 18 -1334 64 -312 199 -550
458 -801 229 -223 450 -342 745 -402 83 -17 173 -18 1339 -18 l1250 0 105 23
c284 63 495 180 723 401 254 247 391 487 454 797 17 83 18 173 18 1334 0 1161
-1 1251 -18 1334 -64 313 -201 552 -460 802 -225 218 -427 329 -722 397 -88
21 -111 21 -1315 23 -674 0 -1241 -1 -1260 -3z m2461 -408 c155 -27 310 -92
425 -178 84 -64 230 -209 293 -292 70 -93 145 -249 173 -360 l23 -90 0 -1225
0 -1225 -23 -89 c-27 -108 -95 -254 -159 -345 -56 -78 -223 -246 -308 -309
-116 -86 -270 -150 -424 -177 -125 -22 -2357 -22 -2482 0 -154 27 -307 91
-425 178 -82 60 -228 206 -293 292 -70 93 -145 249 -173 360 l-23 90 0 1225 0
1225 23 89 c27 108 95 254 159 345 57 79 223 246 307 308 115 85 272 151 419
178 113 21 2372 21 2488 0z"/>
<path d="M2320 3541 c-60 -19 -106 -61 -502 -458 -435 -437 -438 -440 -438
-523 0 -83 3 -86 438 -523 230 -230 433 -427 452 -437 86 -44 169 -32 235 35
65 65 79 147 38 230 -8 17 -119 135 -246 263 l-232 232 760 0 c713 0 762 2
800 19 132 59 162 225 58 323 -63 60 -32 58 -860 58 l-758 0 232 233 c227 228
254 260 267 323 19 88 -55 199 -146 222 -52 13 -62 14 -98 3z"/>
</g>
</svg>
