<svg width="25" height="14" viewBox="0 0 25 14" fill="none" xmlns="http://www.w3.org/2000/svg">
<path d="M0.45 14C0.283333 14 0.2 13.9167 0.2 13.75V0.919999C0.2 0.753333 0.283333 0.669999 0.45 0.669999H5.87C6.03 0.669999 6.16333 0.713333 6.27 0.799999L8.57 3.08C8.64333 3.14667 8.68667 3.20333 8.7 3.25C8.72 3.29667 8.73 3.37333 8.73 3.48V6.22C8.73 6.30667 8.69667 6.38333 8.63 6.45L7.53 7.52L6.6 8.32L7.7 9.78L8.83 12.2C8.85667 12.26 8.87667 12.32 8.89 12.38C8.91 12.4333 8.92 12.5 8.92 12.58V13.75C8.92 13.9167 8.83667 14 8.67 14H6.03C5.88333 14 5.78333 13.9333 5.73 13.8L4.12 9.12H3.37V13.75C3.37 13.9167 3.28667 14 3.12 14H0.45ZM4.47 6.67C5.02333 6.67 5.4 6.55667 5.6 6.33C5.8 6.09667 5.9 5.66333 5.9 5.03C5.9 4.39 5.8 3.95667 5.6 3.73C5.4 3.49667 5.02333 3.38 4.47 3.38C3.92333 3.38 3.54667 3.49667 3.34 3.73C3.13333 3.95667 3.03 4.39 3.03 5.03C3.03 5.66333 3.13333 6.09667 3.34 6.33C3.54667 6.55667 3.92333 6.67 4.47 6.67ZM10.7625 14C10.5958 14 10.5125 13.9167 10.5125 13.75V2.9C10.5125 2.74667 10.5692 2.61333 10.6825 2.5L12.3425 0.83C12.4558 0.723333 12.5892 0.669999 12.7425 0.669999H15.0325C15.1858 0.669999 15.3192 0.723333 15.4325 0.83L17.1125 2.52H17.5825L19.2625 0.83C19.3758 0.723333 19.5092 0.669999 19.6625 0.669999H21.9425C22.1025 0.669999 22.2358 0.723333 22.3425 0.83L24.0125 2.5C24.1258 2.61333 24.1825 2.74667 24.1825 2.9V13.75C24.1825 13.9167 24.0992 14 23.9325 14H21.0925C20.9258 14 20.8425 13.9167 20.8425 13.75V3.33H19.0125V13.75C19.0125 13.9167 18.9292 14 18.7625 14H15.9325C15.7658 14 15.6825 13.9167 15.6825 13.75V3.33H13.8425V13.75C13.8425 13.9167 13.7592 14 13.5925 14H10.7625Z" fill="#6791B3"/>
</svg>
